<?xml version="1.0" encoding="UTF-8" standalone="no"?>
<!-- Uploaded to: SVG Repo, www.svgrepo.com, Generator: SVG Repo Mixer Tools -->
<svg width="800px" height="800px" viewBox="0 0 64 64" version="1.1" xmlns="http://www.w3.org/2000/svg" xmlns:xlink="http://www.w3.org/1999/xlink">
    
    <title>gen-heart-rate</title>
    <desc>Created with Sketch.</desc>
    <defs>

</defs>
    <g id="64px-Glyph" stroke="none" stroke-width="1" fill="none" fill-rule="evenodd">
        <g id="gen-heart-rate" fill="#000000">
            <path d="M57,32 L54.979,32 C59.395,26.128 58.948,17.735 53.606,12.394 C47.759,6.546 38.242,6.545 32.43,12.359 L31,13.652 L29.606,12.394 C23.759,6.545 14.241,6.545 8.394,12.394 C2.545,18.242 2.545,27.758 8.391,33.603 L30.29,55.704 C30.291,55.705 30.292,55.705 30.293,55.706 C30.294,55.707 30.294,55.709 30.296,55.71 C30.367,55.781 30.452,55.824 30.536,55.869 C30.567,55.885 30.592,55.914 30.624,55.926 C30.744,55.975 30.872,56 31,56 C31.128,56 31.255,55.975 31.376,55.926 C31.413,55.911 31.443,55.879 31.478,55.859 C31.557,55.815 31.637,55.776 31.704,55.71 C31.706,55.709 31.706,55.707 31.707,55.706 C31.708,55.705 31.709,55.705 31.71,55.704 L51.235,36 L42,36 C41.621,36 41.275,35.786 41.105,35.447 L40.255,33.747 L36.962,45.275 C36.839,45.705 36.445,46 36,46 L35.973,46 C35.516,45.987 35.126,45.667 35.024,45.222 L30.954,27.308 L28.97,35.242 C28.858,35.688 28.459,36 28,36 L21,36 C20.447,36 20,35.552 20,35 C20,34.448 20.447,34 21,34 L27.219,34 L30.03,22.758 C30.142,22.312 30.542,22 31,22 L31.011,22 C31.474,22.005 31.872,22.327 31.976,22.778 L36.11,40.974 L39.038,30.725 C39.151,30.329 39.497,30.043 39.907,30.004 C40.322,29.966 40.71,30.185 40.894,30.553 L42.618,34 L51,34 L53.216,34 L57,34 C57.553,34 58,33.552 58,33 C58,32.448 57.553,32 57,32" id="Fill-192">

</path>
        </g>
    </g>
</svg>